<svg width="358" height="358" viewBox="0 0 358 358" fill="none" xmlns="http://www.w3.org/2000/svg">
<rect width="358" height="358" fill="#282828"/>
<g clip-path="url(#clip0_10_8)">
<path d="M151.546 218.715H79.5534C71.5825 236.692 67.5971 249.157 67.5971 256.11C67.5971 261.198 69.4626 264.421 73.1937 265.777C77.0943 267.134 82.8605 267.812 90.4922 267.812V277.988H20.7894V267.812C24.8596 267.304 28.3363 266.625 31.2193 265.777C34.272 264.929 36.9007 263.742 39.1054 262.216C41.4797 260.689 43.5149 258.739 45.2108 256.365C46.9067 253.821 48.5179 250.768 50.0442 247.207L116.949 79.5639H135.774L196.573 228.128C200.134 236.777 203.102 243.561 205.476 248.479C208.02 253.397 210.649 257.213 213.362 259.926C216.245 262.47 219.468 264.251 223.029 265.268C226.76 266.286 231.509 267.049 237.275 267.558V277.988H141.116V267.558C149.256 267.219 155.107 266.371 158.669 265.014C162.23 263.657 164.011 260.944 164.011 256.874C164.011 254.499 163.417 251.447 162.23 247.716C161.043 243.985 159.432 239.406 157.397 233.979L151.546 218.715ZM85.4044 203.452H145.949L116.694 126.372H115.677L85.4044 203.452Z" fill="#F97316"/>
<path d="M247.66 148.313L274.896 79.574H309.325V84.2902C306.731 84.2902 304.608 84.5654 302.958 85.1156C301.386 85.5872 300.167 86.4911 299.303 87.8274C298.438 89.1637 297.848 91.0109 297.534 93.369C297.298 95.6485 297.18 98.5568 297.18 102.094V147.841C297.18 151.772 297.337 154.876 297.652 157.156C297.966 159.436 298.595 161.204 299.538 162.462C300.482 163.719 301.818 164.545 303.547 164.938C305.355 165.331 307.713 165.567 310.622 165.645V170.361H266.289V165.645C269.197 165.567 271.516 165.331 273.245 164.938C275.053 164.466 276.429 163.641 277.372 162.462C278.394 161.283 279.062 159.632 279.377 157.51C279.691 155.309 279.848 152.361 279.848 148.667V93.4869H279.259L247.542 171.541H238.817L206.039 93.4869H205.568V147.841C205.568 151.772 205.725 154.876 206.039 157.156C206.354 159.436 206.982 161.204 207.926 162.462C208.869 163.719 210.205 164.545 211.934 164.938C213.742 165.331 216.1 165.567 219.009 165.645V170.361H182.694V165.645C185.602 165.567 187.96 165.331 189.768 164.938C191.576 164.466 192.952 163.641 193.895 162.462C194.917 161.283 195.585 159.632 195.899 157.51C196.214 155.309 196.371 152.361 196.371 148.667V101.269C196.371 97.9673 196.214 95.2162 195.899 93.0153C195.585 90.8144 194.995 89.0851 194.131 87.8274C193.266 86.4911 192.008 85.5872 190.358 85.1156C188.786 84.5654 186.663 84.2902 183.991 84.2902V79.574H219.716L247.188 148.313H247.66Z" fill="#F97316"/>
<path d="M316.781 160.761C316.781 157.625 317.81 154.98 319.868 152.824C322.024 150.57 324.669 149.443 327.805 149.443C331.039 149.443 333.734 150.57 335.89 152.824C338.046 154.98 339.124 157.625 339.124 160.761C339.124 163.799 338.046 166.396 335.89 168.552C333.734 170.61 331.039 171.639 327.805 171.639C324.669 171.639 322.024 170.61 319.868 168.552C317.81 166.396 316.781 163.799 316.781 160.761Z" fill="#F97316"/>
</g>
<defs>
<clipPath id="clip0_10_8">
<rect width="338.313" height="234" fill="white" transform="translate(10 62)"/>
</clipPath>
</defs>
</svg>
